<svg width="1020" height="1020" viewBox="0 0 1020 1020" fill="none" xmlns="http://www.w3.org/2000/svg">
<path d="M416.055 123.945C473.462 66.5375 566.538 66.5376 623.945 123.945L916.055 416.055C973.462 473.462 973.462 566.538 916.055 623.945L623.945 916.055C566.538 973.462 473.462 973.462 416.055 916.055L123.945 623.945C66.5375 566.538 66.5376 473.462 123.945 416.055L416.055 123.945Z" fill="#14B8A6"/>
<path d="M396.055 103.945C453.462 46.5375 546.538 46.5376 603.945 103.945L896.055 396.055C953.462 453.462 953.462 546.538 896.055 603.945L603.945 896.055C546.538 953.462 453.462 953.462 396.055 896.055L103.945 603.945C46.5375 546.538 46.5376 453.462 103.945 396.055L396.055 103.945Z" fill="#2DD4BF"/>
<path d="M498.81 775.8C439.543 775.8 397.777 750.367 373.51 699.5C349.71 648.167 337.81 581.9 337.81 500.7C337.81 414.367 350.643 347.867 376.31 301.2C401.977 254.533 443.277 231.2 500.21 231.2C608.944 231.2 663.31 320.1 663.31 497.9C663.31 577.7 650.944 643.967 626.21 696.7C601.944 749.433 559.477 775.8 498.81 775.8ZM500.21 693.2C524.944 693.2 541.277 677.1 549.21 644.9C557.144 612.233 561.11 563 561.11 497.2C561.11 444.467 557.144 400.833 549.21 366.3C541.743 331.3 525.41 313.8 500.21 313.8C475.01 313.8 458.677 331.067 451.21 365.6C443.743 400.133 440.01 443.767 440.01 496.5C440.01 562.767 443.743 612.233 451.21 644.9C459.143 677.1 475.477 693.2 500.21 693.2Z" fill="white"/>
</svg>
